<?xml version="1.0" encoding="utf-8"?>
<!-- Generator: Adobe Illustrator 18.0.0, SVG Export Plug-In . SVG Version: 6.00 Build 0)  -->
<!DOCTYPE svg PUBLIC "-//W3C//DTD SVG 1.1//EN" "http://www.w3.org/Graphics/SVG/1.1/DTD/svg11.dtd">
<svg version="1.1" id="Layer_1" xmlns:sketch="http://www.bohemiancoding.com/sketch/ns"
	 xmlns="http://www.w3.org/2000/svg" xmlns:xlink="http://www.w3.org/1999/xlink" x="0px" y="0px" viewBox="-151.5 -53 623 281.2"
	 enable-background="new -151.5 -53 623 281.2" xml:space="preserve">
<title>Artboard 2</title>
<desc>Created with Sketch.</desc>
<g id="Page-1" sketch:type="MSPage">
	<g id="Artboard-2" sketch:type="MSArtboardGroup">
		<g id="Logo-2" transform="translate(4.000000, 21.000000)" sketch:type="MSLayerGroup">
			<path id="ERD-Copy-3" sketch:type="MSShapeGroup" fill="#FFFFFF" d="M-116.3-37.6v20.4h35.7V9.5h-35.7v21h37.6v26.8H-148V-64.5
				h69.3v26.8H-116.3z M-27.5-9.9h3.1c2.6,0,5.2-0.2,7.8-0.5c2.6-0.3,4.9-1,7-2.1c2.1-1.1,3.8-2.6,5.2-4.6s2-4.7,2-8s-0.7-6-2-8
				s-3.1-3.5-5.2-4.6c-2.1-1.1-4.4-1.8-7-2.1c-2.6-0.3-5.2-0.5-7.8-0.5h-3.1V-9.9z M42.1,57.3H2.7l-29.9-46.8h-0.3v46.8h-31.7V-64.5
				h47.3c6,0,11.6,0.7,16.8,2.2c5.2,1.5,9.6,3.7,13.4,6.8c3.8,3.1,6.7,7,8.9,11.7c2.2,4.7,3.2,10.3,3.2,16.8c0,4.2-0.6,8.2-1.7,12
				c-1.1,3.8-2.8,7.3-5.1,10.3c-2.3,3.1-5.1,5.7-8.4,7.8S8.2,6.7,3.8,7.4L42.1,57.3z M82.4,30.5h7.1c4.7,0,9.2-0.7,13.5-2
				s8-3.4,11.1-6.1c3.2-2.7,5.7-6.3,7.6-10.6c1.9-4.3,2.8-9.4,2.8-15.3c0-5.5-0.9-10.3-2.6-14.5s-4.1-7.8-7.2-10.7
				c-3.1-2.9-6.7-5.1-11-6.6s-8.9-2.3-14-2.3h-7.4V30.5z M50.7-64.5h44.9c8.5,0,16.5,1.6,24,4.7c7.5,3.1,14,7.4,19.6,12.9
				c5.6,5.5,10,12,13.3,19.4c3.3,7.4,4.9,15.4,4.9,23.9c0,8.6-1.6,16.6-4.9,24c-3.3,7.4-7.7,13.8-13.3,19.3
				c-5.6,5.5-12.2,9.8-19.7,12.9c-7.5,3.1-15.5,4.7-23.9,4.7H50.7V-64.5z"/>
			<path id="STUDIO-Copy-2" sketch:type="MSShapeGroup" fill="#FFFFFF" d="M-74.7,104.7c-2.9-2.5-6.2-4.4-9.8-5.9
				c-3.6-1.5-7.4-2.2-11.2-2.2c-1.5,0-3,0.2-4.6,0.6c-1.6,0.4-3,1.1-4.4,1.9c-1.3,0.9-2.5,1.9-3.3,3.2c-0.9,1.2-1.3,2.7-1.3,4.4
				c0,1.8,0.5,3.4,1.5,4.6c1,1.2,2.2,2.3,3.6,3.2c1.4,0.9,2.9,1.7,4.5,2.3c1.6,0.6,3.1,1.1,4.5,1.5l8.1,2.4
				c4.2,1.3,8.1,2.8,11.8,4.6c3.7,1.8,6.8,4,9.5,6.5c2.7,2.6,4.8,5.7,6.4,9.3c1.6,3.6,2.3,7.9,2.3,12.8c0,6-0.9,12-2.7,17.9
				c-1.8,5.9-5.1,10.9-9.9,14.9c-4.8,4.1-10.3,7-16.3,8.8c-6,1.8-12.1,2.7-18.3,2.7c-7.8,0-15.3-1.2-22.5-3.6
				c-7.3-2.4-14-5.8-20.3-10.3l13.6-25.5c4,3.4,8.3,6.4,12.9,8.9s9.7,3.7,15.2,3.7c1.8,0,3.7-0.2,5.5-0.7c1.8-0.5,3.5-1.2,4.9-2.2
				s2.6-2.2,3.6-3.8c0.9-1.6,1.4-3.4,1.4-5.6c0-2.3-0.7-4.1-2-5.7c-1.3-1.5-3-2.8-5-3.9s-4.1-1.9-6.3-2.6s-4.2-1.2-5.9-1.8
				c-5-1.4-9.5-2.9-13.5-4.4c-4-1.6-7.5-3.6-10.4-6.1c-2.9-2.5-5.1-5.6-6.7-9.4c-1.6-3.8-2.3-8.6-2.3-14.5c0-6.1,1.1-11.7,3.2-16.8
				c2.1-5.1,5-9.4,8.7-12.9c3.7-3.6,8.1-6.3,13.2-8.2c5.1-1.9,10.7-2.9,16.9-2.9c3,0,6.2,0.2,9.6,0.7c3.4,0.5,6.7,1.2,10,2
				c3.3,0.9,6.5,1.9,9.7,3.2c3.2,1.2,6.1,2.6,8.8,4.1L-74.7,104.7z M6.4,195.2h-31.7v-95h-26.2V73.4h84v26.8H6.4V195.2z M149.7,73.4
				v68.5c0,3.9-0.1,7.8-0.3,11.6c-0.2,3.9-0.7,7.6-1.5,11.3c-0.8,3.7-2.1,7.2-3.8,10.6c-1.7,3.4-4.1,6.5-7.1,9.5
				c-2.6,2.5-5.5,4.6-8.6,6.3c-3.2,1.7-6.5,3.1-10,4.2c-3.5,1.1-7.1,1.9-10.8,2.3c-3.7,0.5-7.4,0.7-10.9,0.7
				c-3.6,0-7.2-0.2-10.9-0.7c-3.7-0.5-7.3-1.3-10.8-2.3c-3.5-1.1-6.8-2.5-10-4.2c-3.2-1.7-6.1-3.8-8.6-6.3c-3-2.9-5.4-6.1-7.1-9.5
				c-1.7-3.4-3-6.9-3.8-10.6c-0.8-3.7-1.3-7.4-1.5-11.3c-0.2-3.9-0.3-7.8-0.3-11.6V73.4h31.7v64.1c0,4,0.2,7.9,0.5,11.9
				c0.3,3.9,1.2,7.5,2.6,10.7c1.4,3.2,3.6,5.7,6.5,7.7c2.9,1.9,6.9,2.9,12,2.9c5.1,0,9-1,12-2.9c2.9-1.9,5.1-4.5,6.5-7.7
				c1.4-3.2,2.3-6.7,2.6-10.7c0.3-3.9,0.5-7.9,0.5-11.9V73.4H149.7z M194.7,168.4h7.1c4.7,0,9.2-0.7,13.5-2c4.3-1.3,8-3.4,11.1-6.1
				c3.2-2.7,5.7-6.3,7.6-10.6c1.9-4.3,2.8-9.4,2.8-15.3c0-5.5-0.9-10.3-2.6-14.5c-1.7-4.2-4.1-7.8-7.2-10.7c-3.1-2.9-6.7-5.1-11-6.6
				c-4.3-1.5-8.9-2.3-14-2.3h-7.4V168.4z M163.1,73.4H208c8.5,0,16.5,1.6,24,4.7c7.5,3.1,14,7.4,19.6,12.9c5.6,5.5,10,12,13.3,19.4
				c3.3,7.4,4.9,15.4,4.9,23.9c0,8.6-1.6,16.6-4.9,24c-3.3,7.4-7.7,13.8-13.3,19.3c-5.6,5.5-12.2,9.8-19.7,12.9
				c-7.5,3.1-15.5,4.7-23.9,4.7h-44.9V73.4z M311.7,195.2H280V73.4h31.7V195.2z M389.1,100c-4.7,0-9.2,0.9-13.3,2.7
				c-4.1,1.8-7.8,4.1-10.9,7.1c-3.1,3-5.6,6.4-7.4,10.3s-2.7,7.9-2.7,12.1c0,5.3,0.9,10.1,2.7,14.5s4.3,8.2,7.4,11.5
				c3.1,3.2,6.8,5.8,10.9,7.6c4.1,1.8,8.6,2.7,13.3,2.7c4.7,0,9.2-0.9,13.3-2.7c4.1-1.8,7.8-4.4,10.9-7.6c3.1-3.2,5.6-7.1,7.4-11.5
				s2.7-9.3,2.7-14.5c0-4.2-0.9-8.2-2.7-12.1s-4.3-7.3-7.4-10.3s-6.8-5.3-10.9-7.1C398.2,100.9,393.8,100,389.1,100L389.1,100z
				 M389.1,69.3c8.7,0,17.2,1.5,25.3,4.6c8.1,3.1,15.3,7.4,21.6,12.9c6.2,5.5,11.2,12.2,14.9,19.9c3.7,7.7,5.6,16.1,5.6,25.3
				c0,9.9-1.7,19-5,27.1c-3.3,8.2-8,15.3-14,21.2c-6,6-13.1,10.6-21.3,13.9c-8.2,3.3-17.3,4.9-27.1,4.9c-9.8,0-18.8-1.6-27.1-4.9
				c-8.2-3.3-15.3-7.9-21.3-13.9s-10.6-13.1-14-21.2c-3.3-8.2-5-17.2-5-27.1c0-9.2,1.9-17.6,5.6-25.3s8.7-14.3,14.9-19.9
				c6.2-5.5,13.4-9.9,21.6-12.9C371.9,70.9,380.3,69.3,389.1,69.3L389.1,69.3z"/>
			<rect id="Rectangle-36-Copy-4" x="104.4" y="-13.7" sketch:type="MSShapeGroup" fill="#90DDD1" width="75.4" height="21.5">
			</rect>
			<path id="ARQUITECTURA--Copy-2" sketch:type="MSShapeGroup" fill="#FFFFFF" d="M205.2-5.1l-3.5-8.6h-0.9l-3.5,8.6h0.9l0.9-2.1
				h4.6l0.9,2.1H205.2z M203.3-7.9h-4.1l2-5L203.3-7.9z M215.3-5.1l-2.5-3.6c1.3-0.1,2.4-0.9,2.4-2.5c0-1.6-1.1-2.5-2.6-2.5h-3.2
				v8.6h0.7v-3.6h1.9l2.4,3.6H215.3z M212.5-9.4h-2.4v-3.7h2.4c1.2,0,1.9,0.8,1.9,1.8C214.4-10.1,213.7-9.4,212.5-9.4L212.5-9.4z
				 M223.8-5c1,0,1.8-0.3,2.4-0.7l0.9,0.9l0.5-0.5l-0.9-0.9c0.8-0.8,1.2-1.9,1.2-3.2c0-2.5-1.7-4.5-4.2-4.5c-2.5,0-4.2,1.9-4.2,4.5
				S221.2-5,223.8-5L223.8-5z M223.8-5.6c-2.1,0-3.4-1.6-3.4-3.8c0-2.2,1.3-3.8,3.4-3.8c2.1,0,3.4,1.6,3.4,3.8c0,1.1-0.3,2-0.9,2.7
				l-1.3-1.4l-0.5,0.5l1.3,1.4C225.2-5.9,224.5-5.6,223.8-5.6L223.8-5.6z M236-5c2.2,0,3.4-1.3,3.4-3.5v-5.3h-0.7v5.3
				c0,1.7-0.9,2.8-2.6,2.8s-2.6-1.1-2.6-2.8v-5.3h-0.7v5.3C232.6-6.3,233.8-5,236-5L236-5z M245.1-5.1v-8.6h-0.7v8.6H245.1z
				 M253.1-5.1v-7.9h2.8v-0.7h-6.4v0.7h2.8v7.9H253.1z M265.8-5.1v-0.7H261v-3.4h4.6v-0.7H261v-3.2h4.7v-0.7h-5.5v8.6H265.8z
				 M274.5-5c1.4,0,2.4-0.6,3.2-1.5L277-6.9c-0.5,0.7-1.5,1.3-2.5,1.3c-2,0-3.6-1.6-3.6-3.8c0-2.2,1.6-3.8,3.6-3.8
				c1,0,2,0.5,2.5,1.3l0.6-0.4c-0.7-0.9-1.8-1.5-3.1-1.5c-2.4,0-4.4,1.8-4.4,4.5C270.1-6.8,272.1-5,274.5-5L274.5-5z M284.9-5.1
				v-7.9h2.8v-0.7h-6.4v0.7h2.8v7.9H284.9z M295.5-5c2.2,0,3.4-1.3,3.4-3.5v-5.3h-0.7v5.3c0,1.7-0.9,2.8-2.6,2.8s-2.6-1.1-2.6-2.8
				v-5.3h-0.7v5.3C292.2-6.3,293.3-5,295.5-5L295.5-5z M309.8-5.1l-2.5-3.6c1.3-0.1,2.4-0.9,2.4-2.5c0-1.6-1.1-2.5-2.6-2.5h-3.2v8.6
				h0.7v-3.6h1.9l2.4,3.6H309.8z M307.1-9.4h-2.4v-3.7h2.4c1.2,0,1.9,0.8,1.9,1.8C309-10.1,308.2-9.4,307.1-9.4L307.1-9.4z
				 M321.5-5.1l-3.5-8.6h-0.9l-3.5,8.6h0.9l0.9-2.1h4.6l0.9,2.1H321.5z M319.6-7.9h-4.1l2-5L319.6-7.9z M204.8,10
				c-0.6-0.6-1.2-1.1-1.7-1.6c0.5-0.7,0.9-1.6,1.1-2.3l-0.6-0.3c-0.1,0.5-0.5,1.3-1,2.1c-0.4-0.4-0.7-0.8-1.2-1.3
				c-0.3-0.3-0.7-0.8-1.1-1.4c1.1-0.6,2.2-1.2,2.2-2.5c0-1-0.7-1.6-1.8-1.6c-1.1,0-2.1,0.8-2.1,2c0,0.6,0.3,1.3,0.7,2
				c-1,0.6-1.9,1.2-1.9,2.6c0,1.6,1.2,2.4,2.6,2.4c1.1,0,1.9-0.5,2.5-1.2c0.4,0.4,0.8,0.8,1.1,1H204.8z M200.2,9.5
				c-1,0-1.9-0.6-1.9-1.8c0-1,0.7-1.6,1.5-2.1c0.4,0.5,0.8,1,1.2,1.5c0.2,0.3,0.7,0.8,1.3,1.4C201.8,9.1,201.1,9.5,200.2,9.5
				L200.2,9.5z M199.5,3.2c0-0.8,0.6-1.4,1.3-1.4c0.6,0,1.1,0.4,1.1,1.1c0,1-0.9,1.4-1.9,2C199.8,4.3,199.5,3.7,199.5,3.2L199.5,3.2
				z M218.2,10c2.7,0,4.4-1.9,4.4-4.3c0-2.4-1.7-4.3-4.4-4.3h-2.8V10H218.2z M218.2,9.3h-2V2h2c2.3,0,3.6,1.6,3.6,3.6
				C221.8,7.7,220.5,9.3,218.2,9.3L218.2,9.3z M228,10V1.3h-0.7V10H228z M235.7,10.1c2.3,0,3.1-1.3,3.1-2.4c0-3.2-5.2-2-5.2-4.2
				c0-0.9,0.9-1.6,2-1.6c1,0,1.8,0.3,2.5,1.1l0.5-0.5c-0.7-0.8-1.6-1.2-2.9-1.2c-1.6,0-2.8,0.9-2.8,2.3c0,3,5.2,1.7,5.2,4.2
				c0,0.7-0.5,1.7-2.3,1.7c-1.2,0-2.1-0.6-2.7-1.3l-0.5,0.6C233.2,9.5,234.3,10.1,235.7,10.1L235.7,10.1z M248.9,10V9.3h-4.7V5.9
				h4.6V5.2h-4.6V2h4.7V1.3h-5.5V10H248.9z M257.8,0.6c0.8,0,1.2-0.8,1.2-1.7h-0.5c0,0.9-0.3,1.2-0.7,1.2c-0.7,0-0.7-1.3-1.6-1.3
				c-0.8,0-1.2,0.8-1.2,1.7h0.5c0-0.9,0.3-1.2,0.7-1.2C256.8-0.7,256.8,0.6,257.8,0.6L257.8,0.6z M260.5,10V1.3h-0.7v7.3l-5.4-7.3
				h-0.7V10h0.7V2.5l5.4,7.4H260.5z M269.3,10.1c2.5,0,4.2-1.9,4.2-4.5c0-2.5-1.7-4.5-4.2-4.5c-2.5,0-4.2,1.9-4.2,4.5
				C265.2,8.2,266.8,10.1,269.3,10.1L269.3,10.1z M269.3,9.4c-2.1,0-3.4-1.6-3.4-3.8c0-2.2,1.3-3.8,3.4-3.8c2.1,0,3.4,1.6,3.4,3.8
				C272.8,7.8,271.4,9.4,269.3,9.4L269.3,9.4z"/>
		</g>
	</g>
</g>
</svg>
